<svg width="32" height="33" viewBox="0 0 32 33" fill="none" xmlns="http://www.w3.org/2000/svg">
<path d="M15.9977 9.1119C14.5463 9.1119 13.1275 9.54228 11.9208 10.3486C10.714 11.155 9.7734 12.3011 9.21798 13.642C8.66256 14.9829 8.51724 16.4584 8.80039 17.8819C9.08354 19.3054 9.78245 20.6129 10.8087 21.6392C11.835 22.6655 13.1426 23.3644 14.5661 23.6475C15.9896 23.9307 17.4651 23.7854 18.806 23.2299C20.1469 22.6745 21.293 21.734 22.0993 20.5272C22.9056 19.3204 23.336 17.9016 23.336 16.4502C23.334 14.5046 22.5602 12.6392 21.1845 11.2635C19.8087 9.88772 17.9433 9.11392 15.9977 9.1119ZM15.9977 21.3424C15.0301 21.3424 14.0843 21.0555 13.2797 20.5179C12.4752 19.9804 11.8482 19.2163 11.4779 18.3224C11.1076 17.4285 11.0107 16.4448 11.1995 15.4958C11.3883 14.5468 11.8542 13.6751 12.5384 12.9909C13.2226 12.3067 14.0943 11.8408 15.0433 11.652C15.9923 11.4632 16.9759 11.5601 17.8699 11.9304C18.7638 12.3007 19.5279 12.9277 20.0654 13.7323C20.603 14.5368 20.8899 15.4826 20.8899 16.4502C20.8899 17.7477 20.3745 18.9921 19.457 19.9095C18.5396 20.827 17.2952 21.3424 15.9977 21.3424ZM29.4513 16.7804C29.4574 16.5603 29.4574 16.3401 29.4513 16.12L31.7323 13.2703C31.8519 13.1207 31.9347 12.945 31.974 12.7576C32.0133 12.5701 32.008 12.376 31.9586 12.1909C31.5846 10.7853 31.0253 9.43578 30.2952 8.17779C30.1996 8.01317 30.0669 7.87313 29.9077 7.76882C29.7484 7.66451 29.567 7.59882 29.3779 7.57697L25.7516 7.17336C25.6007 7.01436 25.4478 6.86148 25.2929 6.71471L24.8648 3.07919C24.8428 2.88994 24.7769 2.70845 24.6723 2.54919C24.5677 2.38994 24.4274 2.25731 24.2625 2.1619C23.004 1.43318 21.6546 0.87438 20.2493 0.500073C20.0642 0.450841 19.87 0.445805 19.6825 0.485373C19.4951 0.52494 19.3195 0.608003 19.17 0.727867L16.3279 2.99663C16.1078 2.99663 15.8876 2.99663 15.6675 2.99663L12.8178 0.720223C12.6681 0.600621 12.4925 0.517835 12.305 0.478534C12.1176 0.439233 11.9235 0.444516 11.7384 0.493958C10.3331 0.86856 8.98358 1.42789 7.72528 2.15731C7.56065 2.2529 7.42061 2.3856 7.3163 2.54485C7.212 2.7041 7.1463 2.88549 7.12445 3.0746L6.72084 6.70707C6.56185 6.85893 6.40897 7.01181 6.2622 7.16571L2.62667 7.58308C2.43742 7.6051 2.25594 7.67103 2.09668 7.77561C1.93742 7.88018 1.8048 8.02052 1.70938 8.18544C0.980667 9.4439 0.421866 10.7934 0.0475587 12.1986C-0.00167395 12.3838 -0.00670943 12.5779 0.032858 12.7654C0.0724255 12.9529 0.155489 13.1284 0.275352 13.2779L2.54412 16.12C2.54412 16.3401 2.54412 16.5603 2.54412 16.7804L0.267708 19.6302C0.148106 19.7798 0.0653203 19.9554 0.0260194 20.1429C-0.0132814 20.3304 -0.00799844 20.5244 0.0414433 20.7095C0.415376 22.1151 0.974739 23.4647 1.7048 24.7227C1.80039 24.8873 1.93309 25.0273 2.09233 25.1316C2.25158 25.2359 2.43298 25.3016 2.62209 25.3235L6.24844 25.7271C6.4003 25.8861 6.55318 26.039 6.70709 26.1857L7.13057 29.8213C7.15259 30.0105 7.21851 30.192 7.32309 30.3512C7.42767 30.5105 7.56801 30.6431 7.73292 30.7385C8.99139 31.4673 10.3408 32.0261 11.7461 32.4004C11.9312 32.4496 12.1254 32.4546 12.3129 32.4151C12.5004 32.3755 12.6759 32.2924 12.8254 32.1726L15.6675 29.9038C15.8876 29.9099 16.1078 29.9099 16.3279 29.9038L19.1776 32.1848C19.3273 32.3044 19.5029 32.3872 19.6904 32.4265C19.8778 32.4658 20.0719 32.4605 20.257 32.4111C21.6626 32.0371 23.0121 31.4778 24.2701 30.7477C24.4348 30.6521 24.5748 30.5194 24.6791 30.3602C24.7834 30.2009 24.8491 30.0195 24.871 29.8304L25.2746 26.2041C25.4336 26.0532 25.5864 25.9003 25.7332 25.7454L29.3687 25.3174C29.558 25.2953 29.7395 25.2294 29.8987 25.1248C30.058 25.0203 30.1906 24.8799 30.286 24.715C31.0147 23.4565 31.5735 22.1071 31.9479 20.7019C31.9971 20.5167 32.0021 20.3225 31.9626 20.135C31.923 19.9476 31.8399 19.772 31.7201 19.6225L29.4513 16.7804ZM26.9899 15.7867C27.0159 16.2287 27.0159 16.6718 26.9899 17.1137C26.9717 17.4163 27.0665 17.7149 27.2559 17.9515L29.4253 20.6621C29.1764 21.4532 28.8576 22.2207 28.4729 22.9553L25.0177 23.3467C24.7168 23.3801 24.439 23.5239 24.238 23.7503C23.9437 24.0813 23.6303 24.3947 23.2993 24.689C23.0729 24.89 22.9291 25.1678 22.8957 25.4687L22.512 28.9208C21.7774 29.3057 21.01 29.6245 20.2188 29.8732L17.5066 27.7038C17.2896 27.5304 17.02 27.4361 16.7422 27.4363H16.6689C16.2269 27.4623 15.7838 27.4623 15.3418 27.4363C15.0393 27.4181 14.7407 27.5129 14.5041 27.7023L11.7858 29.8732C10.9947 29.6243 10.2273 29.3056 9.49259 28.9208L9.10121 25.4702C9.06781 25.1693 8.924 24.8915 8.69761 24.6905C8.36663 24.3963 8.05319 24.0828 7.75891 23.7519C7.55792 23.5255 7.28011 23.3816 6.97922 23.3482L3.52715 22.963C3.14218 22.2284 2.82343 21.4609 2.57469 20.6698L4.74408 17.9576C4.93351 17.721 5.02831 17.4224 5.0101 17.1198C4.98411 16.6779 4.98411 16.2348 5.0101 15.7928C5.02831 15.4902 4.93351 15.1917 4.74408 14.955L2.57469 12.2383C2.82362 11.4472 3.14236 10.6798 3.52715 9.9451L6.97769 9.55373C7.27858 9.52033 7.55639 9.37652 7.75738 9.15012C8.05167 8.81914 8.3651 8.50571 8.69608 8.21143C8.92338 8.01031 9.06778 7.73186 9.10121 7.4302L9.48495 3.97966C10.2195 3.59469 10.987 3.27595 11.7782 3.02721L14.4903 5.1966C14.7269 5.38603 15.0255 5.48083 15.3281 5.46261C15.77 5.43662 16.2131 5.43662 16.6551 5.46261C16.9577 5.48083 17.2562 5.38603 17.4929 5.1966L20.2096 3.02721C21.0007 3.27614 21.7681 3.59488 22.5028 3.97966L22.8942 7.4302C22.9276 7.73109 23.0714 8.00891 23.2978 8.2099C23.6288 8.50418 23.9422 8.81762 24.2365 9.14859C24.4375 9.37499 24.7153 9.5188 25.0162 9.5522L28.4683 9.93593C28.8532 10.6705 29.172 11.438 29.4207 12.2292L27.2513 14.9413C27.0601 15.1799 26.9652 15.4816 26.9853 15.7867H26.9899Z" fill="#0D0D0D"/>
</svg>
