<svg width="32" height="35" viewBox="0 0 32 35" fill="none" xmlns="http://www.w3.org/2000/svg">
<path id="Supplier icon" d="M30.72 7.71241L17.1815 0.304715C16.8198 0.104842 16.4133 0 16 0C15.5867 0 15.1802 0.104842 14.8185 0.304715L1.28 7.71548C0.893367 7.92703 0.570621 8.2385 0.345464 8.61737C0.120308 8.99624 0.0010004 9.42861 0 9.86933V24.5832C0.0010004 25.0239 0.120308 25.4563 0.345464 25.8351C0.570621 26.214 0.893367 26.5255 1.28 26.737L14.8185 34.1478C15.1802 34.3477 15.5867 34.4525 16 34.4525C16.4133 34.4525 16.8198 34.3477 17.1815 34.1478L30.72 26.737C31.1066 26.5255 31.4294 26.214 31.6545 25.8351C31.8797 25.4563 31.999 25.0239 32 24.5832V9.87087C31.9998 9.42936 31.8809 8.99603 31.6557 8.61628C31.4305 8.23652 31.1073 7.92433 30.72 7.71241ZM16 2.45856L28.36 9.22779L23.78 11.7355L11.4185 4.96625L16 2.45856ZM16 15.997L3.64 9.22779L8.85538 6.37241L21.2154 13.1416L16 15.997ZM2.46154 11.3816L14.7692 18.117V31.3155L2.46154 24.5847V11.3816ZM29.5385 24.5786L17.2308 31.3155V18.1232L22.1538 15.4293V20.9201C22.1538 21.2465 22.2835 21.5596 22.5143 21.7904C22.7451 22.0212 23.0582 22.1509 23.3846 22.1509C23.711 22.1509 24.0241 22.0212 24.2549 21.7904C24.4857 21.5596 24.6154 21.2465 24.6154 20.9201V14.0816L29.5385 11.3816V24.577V24.5786Z" fill="#0D0D0D"/>
</svg>
