<svg width="32" height="24" viewBox="0 0 32 24" fill="none" xmlns="http://www.w3.org/2000/svg">
<path d="M31.81 11.2473L25.2868 1.47113C25.0792 1.15801 24.7972 0.901132 24.4662 0.723403C24.1352 0.545673 23.7653 0.452611 23.3896 0.452515H2.28581C1.67958 0.452515 1.09817 0.693341 0.669499 1.12201C0.240826 1.55069 0 2.13209 0 2.73833V21.0248C0 21.6311 0.240826 22.2125 0.669499 22.6412C1.09817 23.0698 1.67958 23.3107 2.28581 23.3107H23.3896C23.765 23.31 24.1345 23.2168 24.4654 23.0394C24.7963 22.862 25.0784 22.6058 25.2868 22.2935L31.8057 12.5159C31.9316 12.3285 31.9992 12.108 32 11.8822C32.0008 11.6565 31.9346 11.4355 31.81 11.2473ZM23.3896 21.0248H2.28581V2.73833H23.3896L29.4841 11.8816L23.3896 21.0248Z" fill="#0D0D0D"/>
</svg>
