<svg width="32" height="33" viewBox="0 0 32 33" fill="none" xmlns="http://www.w3.org/2000/svg">
<path d="M16 0.452515C12.8355 0.452515 9.74207 1.3909 7.11088 3.149C4.4797 4.9071 2.42894 7.40596 1.21793 10.3296C0.00693255 13.2532 -0.309921 16.4703 0.307443 19.574C0.924806 22.6777 2.44866 25.5286 4.6863 27.7662C6.92394 30.0039 9.77486 31.5277 12.8786 32.1451C15.9823 32.7624 19.1993 32.4456 22.1229 31.2346C25.0466 30.0236 27.5454 27.9728 29.3035 25.3416C31.0616 22.7104 32 19.617 32 16.4525C31.9955 12.2104 30.3084 8.14336 27.3088 5.14375C24.3092 2.14414 20.2421 0.456994 16 0.452515ZM7.70462 27.1448C8.59498 25.7523 9.82155 24.6064 11.2713 23.8126C12.721 23.0188 14.3472 22.6027 16 22.6027C17.6528 22.6027 19.279 23.0188 20.7287 23.8126C22.1785 24.6064 23.405 25.7523 24.2954 27.1448C21.9236 28.9894 19.0047 29.9909 16 29.9909C12.9954 29.9909 10.0764 28.9894 7.70462 27.1448ZM11.0769 15.2217C11.0769 14.248 11.3657 13.2962 11.9066 12.4866C12.4476 11.677 13.2164 11.046 14.116 10.6734C15.0156 10.3008 16.0055 10.2033 16.9604 10.3933C17.9154 10.5832 18.7926 11.0521 19.4811 11.7406C20.1696 12.4291 20.6385 13.3063 20.8285 14.2613C21.0184 15.2163 20.9209 16.2061 20.5483 17.1057C20.1757 18.0053 19.5447 18.7742 18.7351 19.3151C17.9255 19.8561 16.9737 20.1448 16 20.1448C14.6943 20.1448 13.4421 19.6261 12.5189 18.7029C11.5956 17.7796 11.0769 16.5274 11.0769 15.2217ZM26.1169 25.4387C24.7443 23.4496 22.8141 21.9107 20.5692 21.0156C21.7751 20.0658 22.655 18.7639 23.0867 17.2908C23.5183 15.8178 23.4802 14.2468 22.9776 12.7964C22.475 11.3461 21.5329 10.0883 20.2824 9.19819C19.0318 8.30804 17.535 7.82971 16 7.82971C14.465 7.82971 12.9682 8.30804 11.7176 9.19819C10.4671 10.0883 9.52504 11.3461 9.02245 12.7964C8.51985 14.2468 8.48172 15.8178 8.91335 17.2908C9.34497 18.7639 10.2249 20.0658 11.4308 21.0156C9.18588 21.9107 7.25575 23.4496 5.88308 25.4387C4.14857 23.4881 3.01489 21.0778 2.61854 18.4979C2.22219 15.918 2.58008 13.2785 3.64911 10.8973C4.71814 8.51606 6.45273 6.49463 8.64401 5.07642C10.8353 3.6582 13.3898 2.90366 16 2.90366C18.6102 2.90366 21.1647 3.6582 23.356 5.07642C25.5473 6.49463 27.2819 8.51606 28.3509 10.8973C29.4199 13.2785 29.7778 15.918 29.3815 18.4979C28.9851 21.0778 27.8514 23.4881 26.1169 25.4387Z" fill="#0D0D0D"/>
</svg>
